<svg width="17" height="16" viewBox="0 0 17 16" fill="none" xmlns="http://www.w3.org/2000/svg">
<path d="M16.295 11.295L13 14.59L11.705 13.295L11 14L13 16L17 12L16.295 11.295ZM7 11H10V12H7V11ZM7 9H11V10H7V9Z" fill="url(#paint0_linear_2903_7100)"/>
<path d="M6 3H10V6C10 6.55 10.45 7 11 7H14V10H15V6C15 5.85 14.95 5.75 14.85 5.65L11.35 2.15C11.25 2.05 11.15 2 11 2H6C5.45 2 5 2.45 5 3V15C5 15.55 5.45 16 6 16H9.5V15H6V3ZM11 3.2L13.8 6H11V3.2Z" fill="url(#paint1_linear_2903_7100)"/>
<defs>
<linearGradient id="paint0_linear_2903_7100" x1="7" y1="9" x2="17" y2="16" gradientUnits="userSpaceOnUse">
<stop offset="0.5" stop-color="#FFDB6E"/>
<stop offset="1" stop-color="#FFBC5E"/>
</linearGradient>
<linearGradient id="paint1_linear_2903_7100" x1="5.5" y1="2.5" x2="15.5" y2="16" gradientUnits="userSpaceOnUse">
<stop offset="0.5" stop-color="#FFDB6E"/>
<stop offset="1" stop-color="#FFBC5E"/>
</linearGradient>
</defs>
</svg>
