<svg width="10" height="10" viewBox="0 0 10 10" fill="none" xmlns="http://www.w3.org/2000/svg">
<path d="M2.44444 7.22222L4.13889 5.52778L5.25 6.63889L7.22222 4.68056V5.55556H8.33333V2.77778H5.55556V3.88889H6.43056L5.25 5.06944L4.13889 3.95833L1.66667 6.44444L2.44444 7.22222ZM1.11111 10C0.805556 10 0.544074 9.8913 0.326667 9.67389C0.109259 9.45648 0.00037037 9.19481 0 8.88889V1.11111C0 0.805556 0.108889 0.544074 0.326667 0.326667C0.544444 0.109259 0.805926 0.00037037 1.11111 0H8.88889C9.19444 0 9.45611 0.108889 9.67389 0.326667C9.89167 0.544444 10.0004 0.805926 10 1.11111V8.88889C10 9.19444 9.8913 9.45611 9.67389 9.67389C9.45648 9.89167 9.19481 10.0004 8.88889 10H1.11111ZM1.11111 8.88889H8.88889V1.11111H1.11111V8.88889Z" fill="url(#paint0_linear_2903_7089)"/>
<defs>
<linearGradient id="paint0_linear_2903_7089" x1="0.833333" y1="0.833333" x2="9.16667" y2="9.44444" gradientUnits="userSpaceOnUse">
<stop offset="0.5" stop-color="#FFDB6E"/>
<stop offset="1" stop-color="#FFBC5E"/>
</linearGradient>
</defs>
</svg>
