<svg width="5" height="5" viewBox="0 0 5 5" fill="none" xmlns="http://www.w3.org/2000/svg">
<path d="M1.22222 3.61111L2.06944 2.76389L2.625 3.31944L3.61111 2.34028V2.77778H4.16667V1.38889H2.77778V1.94444H3.21528L2.625 2.53472L2.06944 1.97917L0.833333 3.22222L1.22222 3.61111ZM0.555556 5C0.402778 5 0.272037 4.94565 0.163333 4.83694C0.0546296 4.72824 0.000185185 4.59741 0 4.44444V0.555556C0 0.402778 0.0544445 0.272037 0.163333 0.163333C0.272222 0.0546296 0.402963 0.000185185 0.555556 0H4.44444C4.59722 0 4.72806 0.0544445 4.83694 0.163333C4.94583 0.272222 5.00018 0.402963 5 0.555556V4.44444C5 4.59722 4.94565 4.72806 4.83694 4.83694C4.72824 4.94583 4.59741 5.00018 4.44444 5H0.555556ZM0.555556 4.44444H4.44444V0.555556H0.555556V4.44444Z" fill="url(#paint0_linear_2903_7089)"/>
<defs>
<linearGradient id="paint0_linear_2903_7089" x1="0.416667" y1="0.416667" x2="4.58333" y2="4.72222" gradientUnits="userSpaceOnUse">
<stop offset="0.5" stop-color="#FFDB6E"/>
<stop offset="1" stop-color="#FFBC5E"/>
</linearGradient>
</defs>
</svg>
